<svg id="Group_1755" data-name="Group 1755" xmlns="http://www.w3.org/2000/svg" width="56.476" height="60.064" viewBox="0 0 56.476 60.064">
  <path id="Intersection_9" data-name="Intersection 9" d="M11.683,29.515A36.486,36.486,0,0,1,0,27.51L1.03,4.34,1.3,4.06,5.139,0H17.367L21.9,4.391l.366.354,9.651,9.25,1.261,8.745a36.381,36.381,0,0,1-20.915,6.775Z" transform="translate(15.122 30.549)" fill="#534cda"/>
  <ellipse id="Ellipse_752" data-name="Ellipse 752" cx="15.445" cy="15.445" rx="15.445" ry="15.445" transform="translate(11.324 6.428)" fill="#f6cbcb"/>
  <path id="Path_5703" data-name="Path 5703" d="M744.546,492.4s1.312-2.3,1.007-10,11.418-3.344,21.214-4.079,7.722,12.853,7.722,12.853.707-.808,2.22-7.365-1.922-13.092-1.922-13.092c-1.012-6.891-6.465-4.682-6.465-4.682a2.86,2.86,0,0,1,2.122,3.208c-2.223-3.9-7.676-1.689-7.676-1.689C755.5,462.988,748.125,469,748.125,469c-8.786,1.994-3.633,8.981-3.633,8.981C735.656,482.442,744.546,492.4,744.546,492.4Z" transform="translate(-732.389 -465.695)" fill="#2f2e41"/>
  <path id="Intersection_8" data-name="Intersection 8" d="M0,13.538,13.023,5.631,16.489,0l.018.2,1.02,11.865s1.609,5.2,3.363,13.05A36.486,36.486,0,0,1,0,13.538ZM36.44,0l.672.529L45.2,6.916l10.66,3.91h.007q.306.069.61.146A36.6,36.6,0,0,1,37.141,24.284C37.4,8.584,35.322,0,36.44,0Z" transform="translate(0 34.409)" fill="#2f2e41"/>
</svg>
