<svg xmlns="http://www.w3.org/2000/svg" width="150.084" height="70.92" viewBox="0 0 211.084 81.92">
  <g id="Group_945" data-name="Group 945" transform="translate(-6538.427 -18435.531)">
    <path id="Path_1442" data-name="Path 1442" d="M377.327,248.157a.969.969,0,0,1-.966-.9,34.263,34.263,0,0,0-34.078-31.748c-1.034,0-2.119.053-3.227.156a.969.969,0,0,1-.932-.483,40.712,40.712,0,0,0-74.45,8.855.965.965,0,0,1-.953.7l-.258-.008c-.134,0-.268-.009-.4-.009a28.713,28.713,0,0,0-27.98,22.67.969.969,0,0,1-.949.769H168.183a.969.969,0,1,1,0-1.939h64.173a30.669,30.669,0,0,1,29.671-23.44,42.65,42.65,0,0,1,77.467-9.1c.954-.074,1.889-.112,2.789-.112a36.208,36.208,0,0,1,36.012,33.551.969.969,0,0,1-.9,1.035C377.373,248.156,377.35,248.157,377.327,248.157Z" transform="translate(6371.214 18242.807)" fill="#d6dadc"/>
    <path id="Path_1443" data-name="Path 1443" d="M383.768,291.273H224.777a.969.969,0,0,1,0-1.939H383.768a.969.969,0,1,1,0,1.939Z" transform="translate(6353.238 18212.119)" fill="#d6dadc"/>
    <path id="Path_1444" data-name="Path 1444" d="M256.786,311.874h-53.32a.969.969,0,1,1,0-1.939h53.32a.969.969,0,0,1,0,1.939Z" transform="translate(6360.007 18205.576)" fill="#d6dadc"/>
  </g>
</svg>
