<svg xmlns="http://www.w3.org/2000/svg" xmlns:xlink="http://www.w3.org/1999/xlink" width="42.016" height="23.716" viewBox="0 0 42.016 23.716"><defs><linearGradient id="a" x1="0.5" x2="0.5" y2="1" gradientUnits="objectBoundingBox"><stop offset="0" stop-color="#fff"/><stop offset="1" stop-color="#9893f5"/></linearGradient></defs><g transform="translate(0 0)"><path d="M134.828,185.93H155a7.286,7.286,0,0,1,7.286,7.288v13.47a2.956,2.956,0,0,1-2.956,2.956H139.156a7.286,7.286,0,0,1-7.286-7.288v-13.47A2.956,2.956,0,0,1,134.828,185.93Z" transform="translate(-131.87 -185.93)" fill="url(#a)"/><path d="M329.51,209.446l-6.562-5.623a2.41,2.41,0,0,1-.948-1.912v-7.446a2.409,2.409,0,0,1,.954-1.919l6.562-6.283a1.489,1.489,0,0,1,2.327,1.23v20.722a1.489,1.489,0,0,1-2.334,1.23Z" transform="translate(-289.827 -185.993)" fill="url(#a)"/></g></svg>