<svg xmlns="http://www.w3.org/2000/svg" width="30.907" height="30.907" viewBox="0 0 30.907 30.907"><g style="isolation:isolate"><path d="M27.87,18.454a2.576,2.576,0,1,0-2.576-2.576A2.542,2.542,0,0,0,27.87,18.454Zm-5.151-6.841a2.576,2.576,0,1,0-2.576-2.576A2.542,2.542,0,0,0,22.719,11.613Zm-8.53,0a2.576,2.576,0,1,0-2.576-2.576A2.542,2.542,0,0,0,14.188,11.613ZM9.037,18.454a2.576,2.576,0,1,0-2.576-2.576A2.542,2.542,0,0,0,9.037,18.454ZM18.454,3c8.532,0,15.454,6.2,15.454,13.764A8.554,8.554,0,0,1,25.294,25.3H22.317a2.542,2.542,0,0,0-2.576,2.576,2.6,2.6,0,0,0,.644,1.69,2.814,2.814,0,0,1,.644,1.77,2.542,2.542,0,0,1-2.576,2.576A15.454,15.454,0,0,1,18.454,3Z" transform="translate(-3 -3)" fill="#d6dadc"/></g></svg>