<svg xmlns="http://www.w3.org/2000/svg" width="127.019" height="184.453" viewBox="0 0 127.019 184.453">
  <g id="Group_507" data-name="Group 507" transform="translate(-647.696 -9273.707)">
    <rect id="Rectangle_2255" data-name="Rectangle 2255" width="3.655" height="82.194" transform="translate(723.383 9283.613)" fill="#535461"/>
    <path id="Path_876" data-name="Path 876" d="M184.025,667.407l-.231,3.705-.317,5.226-.137,2.163-.324,5.226-.137,2.163-.324,5.219-3.684,59.436a10.092,10.092,0,0,1-10.042,9.465H149.69a10.092,10.092,0,0,1-10.042-9.443l-3.691-59.436-.317-5.219-.137-2.163-.332-5.226-.13-2.163-.324-5.226-.231-3.705a5.212,5.212,0,0,1,5.2-5.529h39.136a5.2,5.2,0,0,1,5.2,5.507Z" transform="translate(565.952 8698.148)" fill="#3f3d56"/>
    <path id="Path_877" data-name="Path 877" d="M122.337,591.66l-.324,5.226H73.577l-.317-5.226Z" transform="translate(627.416 8777.601)" fill="#9d9cb5"/>
    <path id="Path_878" data-name="Path 878" d="M122.059,601.93l-.324,5.234H74.214l-.324-5.234Z" transform="translate(627.24 8774.734)" fill="#9d9cb5"/>
    <path id="Path_879" data-name="Path 879" d="M121.769,612.21l-.317,5.226h-46.6l-.324-5.226Z" transform="translate(627.061 8771.865)" fill="#9d9cb5"/>
    <path id="Path_880" data-name="Path 880" d="M108.915,592.313c21.259,15.376,30.111,39.439,30.111,39.439s-25.62-.879-46.857-16.263S62,576.05,62,576.05,87.649,576.93,108.915,592.313Z" transform="translate(586.182 8722.111)" fill="#6c63ff"/>
    <path id="Path_881" data-name="Path 881" d="M62,576.05s26.593,14.764,35.121,26.982S139,631.752,139,631.752" transform="translate(586.182 8722.111)" fill="none" stroke="#535461" stroke-miterlimit="10" stroke-width="2"/>
    <path id="Path_882" data-name="Path 882" d="M136.232,552.192c11.577,8.369,16.393,21.468,16.393,21.468s-13.942-.483-25.519-8.852S110.72,543.34,110.72,543.34,124.662,543.816,136.232,552.192Z" transform="translate(572.583 8731.241)" fill="#6c63ff"/>
    <path id="Path_883" data-name="Path 883" d="M110.72,543.34s14.468,8.038,19.118,14.684,22.787,15.636,22.787,15.636" transform="translate(572.583 8731.241)" fill="none" stroke="#535461" stroke-miterlimit="10" stroke-width="2"/>
    <path id="Path_884" data-name="Path 884" d="M185.944,577.034c-13.293,14.612-16.1,33.7-16.1,33.7s18.743-4.6,32.036-19.211,16.1-33.694,16.1-33.694S199.237,562.422,185.944,577.034Z" transform="translate(556.081 8727.196)" fill="#6c63ff"/>
    <path id="Path_885" data-name="Path 885" d="M217.98,557.83s-17.3,14.973-21.72,25.3-26.42,27.61-26.42,27.61" transform="translate(556.081 8727.196)" fill="none" stroke="#535461" stroke-miterlimit="10" stroke-width="2"/>
  </g>
</svg>
