<svg xmlns="http://www.w3.org/2000/svg" width="53.011" height="52.874" viewBox="0 0 53.011 52.874">
  <g id="Group_1244" data-name="Group 1244" transform="translate(-1195.991 -503.321)">
    <path id="Polygon_19" data-name="Polygon 19" d="M29.62,0a2,2,0,0,1,1.713.967l9.044,15a2,2,0,0,1,0,2.065l-9.044,15A2,2,0,0,1,29.62,34H11.38a2,2,0,0,1-1.713-.967l-9.044-15a2,2,0,0,1,0-2.065l9.044-15A2,2,0,0,1,11.38,0Z" transform="translate(1198.493 518.223) rotate(-14)" fill="#42c950"/>
    <path id="Polygon_20" data-name="Polygon 20" d="M29.018,0a2,2,0,0,1,1.73,1l8.9,15.328a2,2,0,0,1,0,2.008l-8.9,15.328a2,2,0,0,1-1.73,1H11.208a2,2,0,0,1-1.73-1L.583,18.332a2,2,0,0,1,0-2.008L9.479,1a2,2,0,0,1,1.73-1Z" transform="matrix(0.719, -0.695, 0.695, 0.719, 1195.991, 531.265)" fill="#42c950"/>
    <text id="Adobe" transform="translate(1223.527 531.812) rotate(-14)" fill="#fff" font-size="11" font-family="SegoeUI, Segoe UI"><tspan x="12.858" y="0">رایگان</tspan></text>
  </g>
</svg>
