<svg xmlns="http://www.w3.org/2000/svg" width="32.347" height="33" viewBox="0 0 32.347 33">
  <g id="_7123953_logo_google_g_icon" data-name="7123953_logo_google_g_icon" transform="translate(0.05 0.018)">
    <path id="Path_2572" data-name="Path 2572" d="M287.948,226.453a19.4,19.4,0,0,0-.285-3.353H272.1v6.354h8.912a7.637,7.637,0,0,1-3.3,5.014v4.123h5.317a16.114,16.114,0,0,0,4.917-12.137Z" transform="translate(-255.651 -209.591)" fill="#4285f4"/>
    <path id="Path_2573" data-name="Path 2573" d="M43.644,337.638a15.794,15.794,0,0,0,10.937-3.983l-5.317-4.123A10.007,10.007,0,0,1,34.387,324.3H28.9v4.25A16.5,16.5,0,0,0,43.644,337.638Z" transform="translate(-27.195 -304.656)" fill="#34a853"/>
    <path id="Path_2574" data-name="Path 2574" d="M7.186,160.567a9.883,9.883,0,0,1,0-6.317V150H1.705a16.514,16.514,0,0,0,0,14.817Z" transform="translate(0 -140.923)" fill="#fbbc04"/>
    <path id="Path_2575" data-name="Path 2575" d="M43.644,6.512a8.966,8.966,0,0,1,6.329,2.474l4.711-4.711A15.858,15.858,0,0,0,43.644-.017,16.5,16.5,0,0,0,28.9,9.077l5.481,4.25a9.869,9.869,0,0,1,9.264-6.814Z" transform="translate(-27.195 0)" fill="#ea4335"/>
  </g>
</svg>
