<svg xmlns="http://www.w3.org/2000/svg" width="66" height="65" viewBox="0 0 66 65"><g transform="translate(0.29 2.662)"><ellipse cx="33" cy="32.5" rx="33" ry="32.5" transform="translate(-0.29 -2.662)" fill="#fff" opacity="0.16"/><g transform="translate(15.431 13.11)"><rect width="34.615" height="33.997" fill="none"/><path d="M42.386,24.206a1.059,1.059,0,0,0-.911-.2L24.322,28.293a1.072,1.072,0,0,0-.817,1.045V44.093a4.731,4.731,0,0,0-2.68-.817A4.824,4.824,0,1,0,25.649,48.1V30.169l15.009-3.752V39.8a4.73,4.73,0,0,0-2.68-.817A4.824,4.824,0,1,0,42.8,43.812V25.05a1.045,1.045,0,0,0-.415-.844Z" transform="translate(-13.856 -21.071)" fill="#d6dadc"/></g></g></svg>