<svg xmlns="http://www.w3.org/2000/svg" width="14" height="13.284" viewBox="0 0 14 13.284"><g transform="translate(0 0)"><rect width="14" height="13" transform="translate(0 0.086)" fill="rgba(0,0,0,0)"/><path d="M13.284,12.114,10.527,9.357A5.72,5.72,0,0,0,11.7,5.848,5.812,5.812,0,0,0,5.848,0,5.812,5.812,0,0,0,0,5.848,5.812,5.812,0,0,0,5.848,11.7a5.72,5.72,0,0,0,3.509-1.17l2.757,2.757ZM1.671,5.848A4.137,4.137,0,0,1,5.848,1.671a4.137,4.137,0,0,1,4.177,4.177,4.137,4.137,0,0,1-4.177,4.177A4.137,4.137,0,0,1,1.671,5.848Z" transform="translate(0.025 0)" fill="#fff"/></g></svg>