<svg xmlns="http://www.w3.org/2000/svg" xmlns:xlink="http://www.w3.org/1999/xlink" width="66" height="65" viewBox="0 0 66 65"><defs><linearGradient id="a" x1="0.5" y1="0.06" x2="0.5" y2="0.968" gradientUnits="objectBoundingBox"><stop offset="0" stop-color="#fff"/><stop offset="1" stop-color="#9893f5"/></linearGradient></defs><g transform="translate(0.468 -0.338)"><ellipse cx="33" cy="32.5" rx="33" ry="32.5" transform="translate(-0.468 0.338)" fill="#534cda"/><g transform="translate(18.062 16.061)"><circle cx="3.625" cy="3.625" r="3.625" transform="translate(2.072)" fill="#fff"/><path d="M3,15.762a3,3,0,0,1-3-3V11.619H.018l0-.008L9.827,1.683a1.353,1.353,0,0,1,1.913,0l2.445,2.444a1.353,1.353,0,0,0,1.976-.067l3.146-3.6A1.353,1.353,0,0,1,21.283.4l8.76,11.215q0,.205-.008.4v.754a3,3,0,0,1-3,3Z" transform="translate(0 10.13)" fill="url(#a)"/></g></g></svg>