<svg xmlns="http://www.w3.org/2000/svg" width="101.002" height="22.845" viewBox="0 0 101.002 22.845">
  <g id="valavid_logo_b-04-04" data-name="valavid logo b-04-04" transform="translate(-43.901 -24.18)">
    <path id="Path_5468" data-name="Path 5468" d="M44.123,43.889a1.767,1.767,0,0,1-.208-1.087,1.861,1.861,0,0,1,.378-.88,2.133,2.133,0,0,1,.732-.589,2.027,2.027,0,0,1,.929-.223,1.82,1.82,0,0,1,.959.272,1.967,1.967,0,0,1,.732.846l4.878,10.314,4.855-10.314a1.944,1.944,0,0,1,.732-.846,1.82,1.82,0,0,1,.959-.272,2.012,2.012,0,0,1,.925.223,2.144,2.144,0,0,1,.755.589,1.861,1.861,0,0,1,.378.88,1.793,1.793,0,0,1-.208,1.087L55.174,56.026a1.714,1.714,0,0,1-.623.732,2.307,2.307,0,0,1-.831.306,4.473,4.473,0,0,1-1.023.045c-.378,0-.755-.03-1.133-.03a3.145,3.145,0,0,1-.687-.064,1.231,1.231,0,0,1-.593-.445,7.551,7.551,0,0,1-.755-1.185c-.291-.529-.661-1.287-1.133-2.265s-1.034-2.216-1.725-3.707S45.142,46.082,44.123,43.889Z" transform="translate(0 -10.538)" fill="#4441b4"/>
    <path id="Path_5469" data-name="Path 5469" d="M88.056,48.353a8.064,8.064,0,0,1,.668-3.258,8.683,8.683,0,0,1,1.816-2.684,8.536,8.536,0,0,1,2.711-1.82,8.438,8.438,0,0,1,3.4-.672,8.54,8.54,0,0,1,7.928,5.176,8.143,8.143,0,0,1,.668,3.288v6.29a1.51,1.51,0,0,1-.6,1.3,2.235,2.235,0,0,1-1.329.43,2.307,2.307,0,0,1-1.348-.43,1.484,1.484,0,0,1-.627-1.3v-6.29a5.421,5.421,0,0,0-.4-2.171A4.772,4.772,0,0,0,99.9,44.665a4.108,4.108,0,0,0-1.51-.929,5.112,5.112,0,0,0-1.714-.3,5.185,5.185,0,0,0-1.745.3,4.428,4.428,0,0,0-1.51.921,4.531,4.531,0,0,0-1.072,1.548,5.384,5.384,0,0,0-.4,2.163,4.946,4.946,0,0,0,.336,1.8,5.112,5.112,0,0,0,.959,1.574,4.866,4.866,0,0,0,1.484,1.133,4.153,4.153,0,0,0,1.888.43,3.4,3.4,0,0,0,.51-.03,2.518,2.518,0,0,1,.687.03,1.861,1.861,0,0,1,.706.287,1.684,1.684,0,0,1,.559.755,1.816,1.816,0,0,1,.159,1.068,1.442,1.442,0,0,1-.449.766,2.3,2.3,0,0,1-.936.476,5.007,5.007,0,0,1-1.295.159,8.37,8.37,0,0,1-2.73-.513,9.121,9.121,0,0,1-2.771-1.548,8.464,8.464,0,0,1-2.141-2.643A7.872,7.872,0,0,1,88.056,48.353Z" transform="translate(-27.484 -9.797)" fill="#4441b4"/>
    <path id="Path_5470" data-name="Path 5470" d="M141.036,24.749a2.144,2.144,0,0,1,1.348-.479,2.088,2.088,0,0,1,1.333.479,1.763,1.763,0,0,1,.6,1.469V44.649a1.778,1.778,0,0,1-.6,1.454,2.061,2.061,0,0,1-1.333.495,2.118,2.118,0,0,1-1.348-.495,1.756,1.756,0,0,1-.615-1.454V26.218A1.737,1.737,0,0,1,141.036,24.749Z" transform="translate(-60.077 -0.056)" fill="#4441b4"/>
    <path id="Path_5471" data-name="Path 5471" d="M155.906,48.354a8.064,8.064,0,0,1,.668-3.258,8.634,8.634,0,0,1,1.82-2.684A8.671,8.671,0,0,1,172.412,45.1a8.143,8.143,0,0,1,.672,3.288v6.29a1.51,1.51,0,0,1-.6,1.295,2.235,2.235,0,0,1-1.329.43,2.307,2.307,0,0,1-1.348-.43,1.48,1.48,0,0,1-.608-1.295v-6.29a5.417,5.417,0,0,0-.419-2.171,4.655,4.655,0,0,0-1.042-1.548,4.093,4.093,0,0,0-1.472-.94,5.127,5.127,0,0,0-1.714-.3,5.207,5.207,0,0,0-1.748.3,4.375,4.375,0,0,0-1.51.921,4.549,4.549,0,0,0-1.076,1.548,5.384,5.384,0,0,0-.4,2.163,5.025,5.025,0,0,0,.336,1.8,5.112,5.112,0,0,0,.959,1.574,4.867,4.867,0,0,0,1.484,1.133,4.153,4.153,0,0,0,1.888.43,3.467,3.467,0,0,0,.513-.03,2.525,2.525,0,0,1,.687.03,1.846,1.846,0,0,1,.7.287,1.684,1.684,0,0,1,.559.755,1.816,1.816,0,0,1,.159,1.068,1.435,1.435,0,0,1-.461.778,2.318,2.318,0,0,1-.944.479,4.987,4.987,0,0,1-1.295.159,8.37,8.37,0,0,1-2.73-.513A9.121,9.121,0,0,1,158.9,54.76a8.506,8.506,0,0,1-2.137-2.643,7.83,7.83,0,0,1-.857-3.764Z" transform="translate(-69.718 -9.797)" fill="#4441b4"/>
    <path id="Path_5472" data-name="Path 5472" d="M200.895,43.889a1.793,1.793,0,0,1-.208-1.087,1.861,1.861,0,0,1,.378-.88,2.144,2.144,0,0,1,.736-.589,2.012,2.012,0,0,1,.925-.223,1.82,1.82,0,0,1,.959.272,1.944,1.944,0,0,1,.732.846l4.889,10.314,4.855-10.314a1.967,1.967,0,0,1,.732-.846,1.82,1.82,0,0,1,.959-.272,2.027,2.027,0,0,1,.929.223,2.1,2.1,0,0,1,.732.589,1.888,1.888,0,0,1,.378.88,1.82,1.82,0,0,1-.208,1.087l-5.739,12.138a1.714,1.714,0,0,1-.623.732,2.307,2.307,0,0,1-.831.306,4.474,4.474,0,0,1-1.023.045c-.378,0-.755-.03-1.133-.03a3.145,3.145,0,0,1-.687-.064,1.208,1.208,0,0,1-.589-.445,7.239,7.239,0,0,1-.755-1.185c-.287-.529-.661-1.287-1.133-2.265s-1.034-2.216-1.725-3.707S201.929,46.082,200.895,43.889Z" transform="translate(-97.585 -10.538)" fill="#4441b4"/>
    <path id="Path_5473" data-name="Path 5473" d="M250.491,43.138a1.756,1.756,0,0,1,.6-1.469,2.118,2.118,0,0,1,2.684,0,1.759,1.759,0,0,1,.608,1.469V55.181a1.775,1.775,0,0,1-.608,1.454,2.069,2.069,0,0,1-2.684,0,1.771,1.771,0,0,1-.6-1.454Z" transform="translate(-128.592 -10.588)" fill="#4441b4"/>
    <path id="Path_5474" data-name="Path 5474" d="M274.469,46.923a8.51,8.51,0,0,1-6.09-2.492,8.6,8.6,0,0,1-1.816-2.681,8.076,8.076,0,0,1-.668-3.258,7.769,7.769,0,0,1,.853-3.753,8.533,8.533,0,0,1,2.141-2.62,9.061,9.061,0,0,1,2.786-1.548,8.525,8.525,0,0,1,2.745-.513,4.655,4.655,0,0,1,1.28.162,2.265,2.265,0,0,1,.925.476,1.442,1.442,0,0,1,.449.785,1.789,1.789,0,0,1-.162,1.068,1.627,1.627,0,0,1-.559.736,1.831,1.831,0,0,1-.687.287,2.461,2.461,0,0,1-.683.03c-.227,0-.4-.03-.529-.03a4.153,4.153,0,0,0-1.888.43,4.908,4.908,0,0,0-1.487,1.133,5.138,5.138,0,0,0-.955,1.582,4.881,4.881,0,0,0-.336,1.774,5.406,5.406,0,0,0,.4,2.171,4.455,4.455,0,0,0,1.072,1.548,4.633,4.633,0,0,0,1.51.944,4.908,4.908,0,0,0,3.447,0,4.244,4.244,0,0,0,1.51-.925,4.6,4.6,0,0,0,1.057-1.567,5.523,5.523,0,0,0,.4-2.186V25.905a1.472,1.472,0,0,1,.619-1.291,2.311,2.311,0,0,1,1.348-.434,2.239,2.239,0,0,1,1.329.434,1.484,1.484,0,0,1,.6,1.291V38.492a8.129,8.129,0,0,1-.668,3.288,8.491,8.491,0,0,1-4.561,4.489A8.627,8.627,0,0,1,274.469,46.923Z" transform="translate(-138.182)" fill="#4441b4"/>
    <circle id="Ellipse_704" data-name="Ellipse 704" cx="1.948" cy="1.948" r="1.948" transform="translate(121.899 24.278)" fill="#55dbcb"/>
  </g>
</svg>
