<svg xmlns="http://www.w3.org/2000/svg" xmlns:xlink="http://www.w3.org/1999/xlink" width="100" height="22.638" viewBox="0 0 100 22.638">
  <defs>
    <clipPath id="clip-path">
      <rect width="100" height="22.638" fill="none"/>
    </clipPath>
  </defs>
  <g id="valavid_logo-03" data-name="valavid logo-03" clip-path="url(#clip-path)">
    <g id="valavid_logo-03-2" data-name="valavid logo-03" transform="translate(-41.863 -26.28)">
      <path id="Path_5461" data-name="Path 5461" d="M42.082,45.955a1.776,1.776,0,0,1-.206-1.077,1.869,1.869,0,0,1,.374-.871A2.082,2.082,0,0,1,43,43.424a2.007,2.007,0,0,1,.916-.224,1.791,1.791,0,0,1,.949.269,1.989,1.989,0,0,1,.729.841L50.4,54.522,55.206,44.31a1.989,1.989,0,0,1,.748-.841A1.79,1.79,0,0,1,56.9,43.2a2.007,2.007,0,0,1,.916.224,2.082,2.082,0,0,1,.748.583,1.869,1.869,0,0,1,.374.871,1.776,1.776,0,0,1-.206,1.077L53.027,57.969a1.738,1.738,0,0,1-.617.748,2.3,2.3,0,0,1-.822.3,4.228,4.228,0,0,1-1.013.049c-.374,0-.748-.03-1.121-.03a3.054,3.054,0,0,1-.677-.064,1.192,1.192,0,0,1-.587-.445,7.364,7.364,0,0,1-.748-1.17q-.426-.789-1.121-2.243t-1.693-3.689Q43.6,49.211,42.082,45.955Z" transform="translate(0 -10.595)" fill="#fff"/>
      <path id="Path_5462" data-name="Path 5462" d="M86,50.358a7.913,7.913,0,0,1,.665-3.226,8.537,8.537,0,0,1,1.8-2.658,8.452,8.452,0,0,1,2.684-1.8A8.354,8.354,0,0,1,94.5,42a8.467,8.467,0,0,1,6.044,2.456,8.6,8.6,0,0,1,1.817,2.669,8.048,8.048,0,0,1,.662,3.256v6.239a1.469,1.469,0,0,1-.576,1.278,2.2,2.2,0,0,1-1.32.43,2.243,2.243,0,0,1-1.331-.43,1.447,1.447,0,0,1-.613-1.278V50.387a5.42,5.42,0,0,0-.4-2.149A4.74,4.74,0,0,0,97.754,46.7a4.06,4.06,0,0,0-1.5-.916,4.968,4.968,0,0,0-1.7-.3,5.065,5.065,0,0,0-1.731.3,4.37,4.37,0,0,0-1.5.912,4.486,4.486,0,0,0-1.065,1.529,5.412,5.412,0,0,0-.4,2.146,4.942,4.942,0,0,0,.333,1.779,5.11,5.11,0,0,0,.949,1.562,4.818,4.818,0,0,0,1.469,1.121,4.134,4.134,0,0,0,1.869.426,4.968,4.968,0,0,0,.5-.034,2.669,2.669,0,0,1,.68.034,1.805,1.805,0,0,1,.7.284,1.619,1.619,0,0,1,.553.748,1.794,1.794,0,0,1,.157,1.058,1.376,1.376,0,0,1-.441.774,2.183,2.183,0,0,1-.934.475,4.9,4.9,0,0,1-1.278.161,8.425,8.425,0,0,1-2.706-.508A9.012,9.012,0,0,1,88.988,56.7a8.381,8.381,0,0,1-2.119-2.617A7.8,7.8,0,0,1,86,50.358Z" transform="translate(-27.637 -9.843)" fill="#fff"/>
      <path id="Path_5463" data-name="Path 5463" d="M138.965,26.845a2.123,2.123,0,0,1,1.334-.475,2.056,2.056,0,0,1,1.316.475,1.746,1.746,0,0,1,.6,1.454V46.548a1.764,1.764,0,0,1-.6,1.439,2.034,2.034,0,0,1-1.316.49,2.1,2.1,0,0,1-1.334-.49,1.742,1.742,0,0,1-.613-1.439V28.3A1.723,1.723,0,0,1,138.965,26.845Z" transform="translate(-60.418 -0.056)" fill="#fff"/>
      <path id="Path_5464" data-name="Path 5464" d="M153.866,50.37a7.973,7.973,0,0,1,.665-3.226,8.538,8.538,0,0,1,1.8-2.658,8.452,8.452,0,0,1,2.684-1.8,8.354,8.354,0,0,1,3.364-.665,8.47,8.47,0,0,1,7.85,5.125,8.048,8.048,0,0,1,.662,3.256v6.231a1.469,1.469,0,0,1-.594,1.278,2.194,2.194,0,0,1-1.32.43,2.243,2.243,0,0,1-1.331-.43,1.458,1.458,0,0,1-.613-1.278V50.4a5.352,5.352,0,0,0-.407-2.149,4.74,4.74,0,0,0-1.032-1.536,4.059,4.059,0,0,0-1.477-.916,4.968,4.968,0,0,0-1.7-.3,5.08,5.08,0,0,0-1.731.3,4.351,4.351,0,0,0-2.568,2.441,5.349,5.349,0,0,0-.4,2.146,4.86,4.86,0,0,0,.333,1.779A5.028,5.028,0,0,0,159,53.727a4.837,4.837,0,0,0,1.473,1.121,4.112,4.112,0,0,0,1.869.426,4.969,4.969,0,0,0,.5-.034,2.661,2.661,0,0,1,.68.034,1.805,1.805,0,0,1,.7.284,1.593,1.593,0,0,1,.553.748,1.772,1.772,0,0,1,.161,1.058,1.4,1.4,0,0,1-.445.774,2.19,2.19,0,0,1-.931.475,4.957,4.957,0,0,1-1.282.161,8.384,8.384,0,0,1-2.7-.508,8.971,8.971,0,0,1-2.744-1.533,8.381,8.381,0,0,1-2.119-2.617A7.8,7.8,0,0,1,153.866,50.37Z" transform="translate(-70.134 -9.856)" fill="#fff"/>
      <path id="Path_5465" data-name="Path 5465" d="M198.854,45.955a1.8,1.8,0,0,1-.206-1.077,1.846,1.846,0,0,1,.374-.871,2.034,2.034,0,0,1,.725-.583,2.011,2.011,0,0,1,.92-.224,1.787,1.787,0,0,1,.946.269,1.989,1.989,0,0,1,.729.841l4.841,10.212,4.807-10.212a1.955,1.955,0,0,1,.725-.841,1.8,1.8,0,0,1,.949-.269,2,2,0,0,1,.916.224,2.082,2.082,0,0,1,.729.583,1.843,1.843,0,0,1,.374.871,1.776,1.776,0,0,1-.206,1.077L209.8,57.969a1.69,1.69,0,0,1-.617.748,2.3,2.3,0,0,1-.822.3,4.216,4.216,0,0,1-1.013.049c-.374,0-.748-.03-1.121-.03a3.091,3.091,0,0,1-.68-.064,1.207,1.207,0,0,1-.587-.445,7.641,7.641,0,0,1-.748-1.17c-.284-.527-.65-1.275-1.121-2.243l-1.7-3.689Q200.371,49.211,198.854,45.955Z" transform="translate(-98.171 -10.595)" fill="#fff"/>
      <path id="Path_5466" data-name="Path 5466" d="M248.451,45.219a1.738,1.738,0,0,1,.6-1.454,2.1,2.1,0,0,1,2.658,0,1.738,1.738,0,0,1,.6,1.454V57.143a1.757,1.757,0,0,1-.6,1.439,2.048,2.048,0,0,1-2.658,0,1.757,1.757,0,0,1-.6-1.439Z" transform="translate(-129.362 -10.652)" fill="#fff"/>
      <path id="Path_5467" data-name="Path 5467" d="M272.348,48.8a8.426,8.426,0,0,1-6.029-2.467,8.638,8.638,0,0,1-1.8-2.654,8,8,0,0,1-.662-3.226,7.693,7.693,0,0,1,.849-3.716,8.4,8.4,0,0,1,2.119-2.594,8.972,8.972,0,0,1,2.759-1.536,8.512,8.512,0,0,1,2.718-.5,4.781,4.781,0,0,1,1.267.157,2.284,2.284,0,0,1,.916.475,1.42,1.42,0,0,1,.441.778,1.8,1.8,0,0,1-.157,1.058,1.667,1.667,0,0,1-.553.729,1.869,1.869,0,0,1-.68.284,2.463,2.463,0,0,1-.68.03c-.221-.019-.4-.03-.52-.03a4.134,4.134,0,0,0-1.869.426A4.829,4.829,0,0,0,269,37.128a5.053,5.053,0,0,0-.949,1.566,4.912,4.912,0,0,0-.333,1.757,5.431,5.431,0,0,0,.4,2.149,4.485,4.485,0,0,0,1.065,1.533,4.545,4.545,0,0,0,1.5.935,4.9,4.9,0,0,0,3.413,0,4.186,4.186,0,0,0,1.473-.916,4.564,4.564,0,0,0,1.062-1.529,5.536,5.536,0,0,0,.4-2.164V27.988a1.465,1.465,0,0,1,.609-1.282,2.284,2.284,0,0,1,1.334-.426,2.205,2.205,0,0,1,1.316.426,1.5,1.5,0,0,1,.6,1.282V40.451a8,8,0,0,1-.665,3.256,8.384,8.384,0,0,1-4.512,4.444A8.6,8.6,0,0,1,272.348,48.8Z" transform="translate(-139.01 0)" fill="#fff"/>
      <circle id="Ellipse_703" data-name="Ellipse 703" cx="1.929" cy="1.929" r="1.929" transform="translate(119.089 26.28)" fill="#55dbcb"/>
    </g>
  </g>
</svg>
